<?xml version="1.0" encoding="UTF-8" standalone="no"?>
<!-- Generator: Adobe Illustrator 19.0.0, SVG Export Plug-In . SVG Version: 6.00 Build 0)  -->

<svg
   xmlns:dc="http://purl.org/dc/elements/1.1/"
   xmlns:cc="http://creativecommons.org/ns#"
   xmlns:rdf="http://www.w3.org/1999/02/22-rdf-syntax-ns#"
   xmlns:svg="http://www.w3.org/2000/svg"
   xmlns="http://www.w3.org/2000/svg"
   xmlns:sodipodi="http://sodipodi.sourceforge.net/DTD/sodipodi-0.dtd"
   xmlns:inkscape="http://www.inkscape.org/namespaces/inkscape"
   version="1.1"
   id="Capa_1"
   x="0px"
   y="0px"
   viewBox="0 0 166.943 166.943"
   style="enable-background:new 0 0 166.943 166.943;"
   xml:space="preserve"
   inkscape:version="0.91 r13725"
   sodipodi:docname="Logo.svg"><metadata
     id="metadata61"><rdf:RDF><cc:Work
         rdf:about=""><dc:format>image/svg+xml</dc:format><dc:type
           rdf:resource="http://purl.org/dc/dcmitype/StillImage" /></cc:Work></rdf:RDF></metadata><defs
     id="defs59" /><sodipodi:namedview
     pagecolor="#ffffff"
     bordercolor="#666666"
     borderopacity="1"
     objecttolerance="10"
     gridtolerance="10"
     guidetolerance="10"
     inkscape:pageopacity="0"
     inkscape:pageshadow="2"
     inkscape:window-width="1366"
     inkscape:window-height="717"
     id="namedview57"
     showgrid="false"
     inkscape:zoom="1.9992118"
     inkscape:cx="-22.248677"
     inkscape:cy="88.179592"
     inkscape:window-x="0"
     inkscape:window-y="27"
     inkscape:window-maximized="1"
     inkscape:current-layer="g3" /><g
     id="g3"><circle
       style="fill:#99d362;fill-opacity:1"
       cx="83.471"
       cy="83.472"
       r="83.471"
       id="circle5"
       inkscape:export-xdpi="72.779999"
       inkscape:export-ydpi="72.779999" /><g
       id="g7"
       inkscape:export-xdpi="72.779999"
       inkscape:export-ydpi="72.779999"><circle
         cx="128.037"
         cy="53.841"
         r="13.078"
         id="circle9" /><circle
         cx="39.926"
         cy="53.61"
         r="13.078"
         id="circle11" /><ellipse
         style="fill:#FFFFFF;"
         cx="83.886"
         cy="86.405"
         rx="58.552"
         ry="47.797"
         id="ellipse13" /><path
         d="M41.11,119.038c0,0,11.556-5.799,13.032-15.83c1.477-10.031-6.853-20.085-11.315-21.396    c-4.463-1.311-16.36-5.105-17.407,2.001C24.372,90.92,27.423,109.828,41.11,119.038z"
         id="path15" /><path
         d="M126.644,119.038c0,0-11.557-5.799-13.033-15.83c-1.476-10.031,6.853-20.085,11.316-21.396    c4.462-1.311,16.36-5.105,17.407,2.001C143.381,90.92,140.33,109.828,126.644,119.038z"
         id="path17" /><path
         d="M95.771,105.91c0,2.447-5.325,9.736-11.894,9.736c-6.57,0-11.895-7.289-11.895-9.736c0-2.447,5.325-4.431,11.895-4.431    C90.446,101.479,95.771,103.463,95.771,105.91z"
         id="path19" /><circle
         style="fill:#FEFEFD;"
         cx="44.853"
         cy="98.656"
         r="4.933"
         id="circle21" /><circle
         style="fill:#FEFEFD;"
         cx="125.099"
         cy="98.656"
         r="4.933"
         id="circle23" /><circle
         style="fill:#FEFEFD;"
         cx="105.203"
         cy="99.651"
         r="4.932"
         id="circle25" /><g
         id="g4251"
         transform="translate(1.0003943,-1.5005914)"><path
           inkscape:connector-curvature="0"
           id="path4249"
           d="m 70.031171,120.78609 c 4.42116,3.53692 13.086633,-1.23793 13.086633,-1.23793 0,0 4.067467,3.89062 9.549705,2.299"
           style="fill:none;fill-rule:evenodd;stroke:#000000;stroke-width:1px;stroke-linecap:butt;stroke-linejoin:miter;stroke-opacity:1" /></g></g><rect
       style="opacity:1;fill:#99d362;fill-opacity:1;fill-rule:evenodd;stroke:#99d162;stroke-width:0;stroke-miterlimit:4;stroke-dasharray:none;stroke-opacity:1"
       id="rect4189"
       width="44.565292"
       height="38.906204"
       x="-198.06796"
       y="-65.786858" /><rect
       style="opacity:1;fill:#70c2ef;fill-opacity:0.94117647;fill-rule:evenodd;stroke:#99d162;stroke-width:0;stroke-miterlimit:4;stroke-dasharray:none;stroke-opacity:1"
       id="rect4191"
       width="58.005615"
       height="57.298229"
       x="-132.28111"
       y="-16.269869" /><rect
       style="opacity:1;fill:#5ea9cc;fill-opacity:1;fill-rule:evenodd;stroke:#99d162;stroke-width:0;stroke-miterlimit:4;stroke-dasharray:none;stroke-opacity:1"
       id="rect4191-3"
       width="55.176075"
       height="57.298229"
       x="-72.507027"
       y="-15.916173" /><rect
       style="opacity:1;fill:#9de7f9;fill-opacity:1;fill-rule:evenodd;stroke:#99d162;stroke-width:0;stroke-miterlimit:4;stroke-dasharray:none;stroke-opacity:1"
       id="rect4208"
       width="60.127773"
       height="58.713001"
       x="-194.53102"
       y="-15.562483" /></g><g
     id="g27" /><g
     id="g29" /><g
     id="g31" /><g
     id="g33" /><g
     id="g35" /><g
     id="g37" /><g
     id="g39" /><g
     id="g41" /><g
     id="g43" /><g
     id="g45" /><g
     id="g47" /><g
     id="g49" /><g
     id="g51" /><g
     id="g53" /><g
     id="g55" /></svg>